<svg xmlns="http://www.w3.org/2000/svg" xmlns:xlink="http://www.w3.org/1999/xlink" version="1.1" style="" xml:space="preserve" width="512" height="512"><rect id="backgroundrect" width="100%" height="100%" x="0" y="0" fill="none" stroke="none"/><defs><linearGradient id="svg_20" spreadMethod="pad"><stop stop-color="#000099" stop-opacity="1" offset="0"/><stop stop-color="#ffff66" stop-opacity="1" offset="0.4990386962890625"/></linearGradient><linearGradient id="svg_21" spreadMethod="pad" x1="0.0" y1="0.0" x2="1.0" y2="0.0"><stop stop-color="#000099" stop-opacity="1" offset="1"/><stop stop-color="#ffff66" stop-opacity="1" offset="1"/></linearGradient></defs>



















<g class="currentLayer" style=""><title>Layer 1</title><path style="" d="M256,512C114.839,512,0,397.161,0,256S114.839,0,256,0s256,114.839,256,256S397.161,512,256,512z" id="svg_1" class="" fill="#000099" fill-opacity="1"/><path style="" d="M512,256C512,114.839,397.161,0,256,0v512C397.161,512,512,397.161,512,256z" id="svg_2" class="" fill="url(#svg_21)" fill-opacity="1"/><path style="fill:#FFFFFF;" d="M389.594,239.301H272.699V122.406c0-9.225-7.475-16.699-16.699-16.699  c-9.225,0-16.699,7.475-16.699,16.699v116.895H122.406c-9.225,0-16.699,7.475-16.699,16.699c0,9.225,7.475,16.699,16.699,16.699  h116.895v116.895c0,9.225,7.475,16.699,16.699,16.699c9.225,0,16.699-7.475,16.699-16.699V272.699h116.895  c9.225,0,16.699-7.475,16.699-16.699C406.294,246.775,398.819,239.301,389.594,239.301z" id="svg_3"/><path style="" d="M389.594,239.301H272.699V122.406c0-9.225-7.475-16.699-16.699-16.699v133.594v33.399v133.594  c9.225,0,16.699-7.475,16.699-16.699V272.699h116.895c9.225,0,16.699-7.475,16.699-16.699  C406.294,246.775,398.819,239.301,389.594,239.301z" id="svg_4" class="" fill="#ffffff" fill-opacity="1"/><g id="svg_5">
</g><g id="svg_6">
</g><g id="svg_7">
</g><g id="svg_8">
</g><g id="svg_9">
</g><g id="svg_10">
</g><g id="svg_11">
</g><g id="svg_12">
</g><g id="svg_13">
</g><g id="svg_14">
</g><g id="svg_15">
</g><g id="svg_16">
</g><g id="svg_17">
</g><g id="svg_18">
</g><g id="svg_19">
</g></g></svg>